<svg width="45" height="37" viewBox="0 0 45 37" fill="none" xmlns="http://www.w3.org/2000/svg">
<path d="M0.728 7.2V1.008H12.296V36H5.384V7.2H0.728ZM24.7906 17.472C21.5906 15.808 19.9906 13.232 19.9906 9.744C19.9906 8.016 20.4226 6.448 21.2866 5.04C22.1826 3.6 23.5106 2.464 25.2706 1.632C27.0626 0.767999 29.2386 0.335999 31.7986 0.335999C34.3586 0.335999 36.5186 0.767999 38.2786 1.632C40.0706 2.464 41.3986 3.6 42.2626 5.04C43.1586 6.448 43.6066 8.016 43.6066 9.744C43.6066 11.504 43.1746 13.056 42.3106 14.4C41.4466 15.712 40.2946 16.736 38.8546 17.472C40.6146 18.24 41.9906 19.36 42.9826 20.832C43.9746 22.304 44.4706 24.048 44.4706 26.064C44.4706 28.24 43.9106 30.144 42.7906 31.776C41.7026 33.376 40.1986 34.608 38.2786 35.472C36.3586 36.336 34.1986 36.768 31.7986 36.768C29.3986 36.768 27.2386 36.336 25.3186 35.472C23.4306 34.608 21.9266 33.376 20.8066 31.776C19.7186 30.144 19.1746 28.24 19.1746 26.064C19.1746 24.048 19.6706 22.304 20.6626 20.832C21.6546 19.328 23.0306 18.208 24.7906 17.472ZM37.0786 10.704C37.0786 9.136 36.5986 7.92 35.6386 7.056C34.7106 6.192 33.4306 5.76 31.7986 5.76C30.1986 5.76 28.9186 6.192 27.9586 7.056C27.0306 7.92 26.5666 9.152 26.5666 10.752C26.5666 12.192 27.0466 13.344 28.0066 14.208C28.9986 15.072 30.2626 15.504 31.7986 15.504C33.3346 15.504 34.5986 15.072 35.5906 14.208C36.5826 13.312 37.0786 12.144 37.0786 10.704ZM31.7986 20.4C29.9746 20.4 28.4866 20.864 27.3346 21.792C26.2146 22.72 25.6546 24.048 25.6546 25.776C25.6546 27.376 26.1986 28.688 27.2866 29.712C28.4066 30.704 29.9106 31.2 31.7986 31.2C33.6866 31.2 35.1746 30.688 36.2626 29.664C37.3506 28.64 37.8946 27.344 37.8946 25.776C37.8946 24.08 37.3346 22.768 36.2146 21.84C35.0946 20.88 33.6226 20.4 31.7986 20.4Z" fill="#2A3246"/>
</svg>
