<svg width="25" height="37" viewBox="0 0 25 37" fill="none" xmlns="http://www.w3.org/2000/svg">
<path d="M17.688 9.744C17.368 8.4 16.808 7.392 16.008 6.72C15.24 6.048 14.12 5.712 12.648 5.712C10.44 5.712 8.808 6.608 7.752 8.4C6.728 10.16 6.2 13.04 6.168 17.04C6.936 15.76 8.056 14.768 9.528 14.064C11 13.328 12.6 12.96 14.328 12.96C16.408 12.96 18.248 13.408 19.848 14.304C21.448 15.2 22.696 16.512 23.592 18.24C24.488 19.936 24.936 21.984 24.936 24.384C24.936 26.656 24.472 28.688 23.544 30.48C22.648 32.24 21.32 33.616 19.56 34.608C17.8 35.6 15.704 36.096 13.272 36.096C9.944 36.096 7.32 35.36 5.4 33.888C3.512 32.416 2.184 30.368 1.416 27.744C0.68 25.088 0.312 21.824 0.312 17.952C0.312 12.096 1.32 7.68 3.336 4.704C5.352 1.696 8.536 0.191998 12.888 0.191998C16.248 0.191998 18.856 1.104 20.712 2.928C22.568 4.752 23.64 7.024 23.928 9.744H17.688ZM12.792 18.48C11.096 18.48 9.672 18.976 8.52 19.968C7.368 20.96 6.792 22.4 6.792 24.288C6.792 26.176 7.32 27.664 8.376 28.752C9.464 29.84 10.984 30.384 12.936 30.384C14.664 30.384 16.024 29.856 17.016 28.8C18.04 27.744 18.552 26.32 18.552 24.528C18.552 22.672 18.056 21.2 17.064 20.112C16.104 19.024 14.68 18.48 12.792 18.48Z" fill="#2A3246"/>
</svg>
