<svg width="89" height="37" viewBox="0 0 89 37" fill="none" xmlns="http://www.w3.org/2000/svg">
<path d="M6.4 17.472C3.2 15.808 1.6 13.232 1.6 9.744C1.6 8.016 2.032 6.448 2.896 5.04C3.792 3.6 5.12 2.464 6.88 1.632C8.672 0.767999 10.848 0.335999 13.408 0.335999C15.968 0.335999 18.128 0.767999 19.888 1.632C21.68 2.464 23.008 3.6 23.872 5.04C24.768 6.448 25.216 8.016 25.216 9.744C25.216 11.504 24.784 13.056 23.92 14.4C23.056 15.712 21.904 16.736 20.464 17.472C22.224 18.24 23.6 19.36 24.592 20.832C25.584 22.304 26.08 24.048 26.08 26.064C26.08 28.24 25.52 30.144 24.4 31.776C23.312 33.376 21.808 34.608 19.888 35.472C17.968 36.336 15.808 36.768 13.408 36.768C11.008 36.768 8.848 36.336 6.928 35.472C5.04 34.608 3.536 33.376 2.416 31.776C1.328 30.144 0.784 28.24 0.784 26.064C0.784 24.048 1.28 22.304 2.272 20.832C3.264 19.328 4.64 18.208 6.4 17.472ZM18.688 10.704C18.688 9.136 18.208 7.92 17.248 7.056C16.32 6.192 15.04 5.76 13.408 5.76C11.808 5.76 10.528 6.192 9.568 7.056C8.64 7.92 8.176 9.152 8.176 10.752C8.176 12.192 8.656 13.344 9.616 14.208C10.608 15.072 11.872 15.504 13.408 15.504C14.944 15.504 16.208 15.072 17.2 14.208C18.192 13.312 18.688 12.144 18.688 10.704ZM13.408 20.4C11.584 20.4 10.096 20.864 8.944 21.792C7.824 22.72 7.264 24.048 7.264 25.776C7.264 27.376 7.808 28.688 8.896 29.712C10.016 30.704 11.52 31.2 13.408 31.2C15.296 31.2 16.784 30.688 17.872 29.664C18.96 28.64 19.504 27.344 19.504 25.776C19.504 24.08 18.944 22.768 17.824 21.84C16.704 20.88 15.232 20.4 13.408 20.4ZM31.3878 18.048C31.3878 12.512 32.3798 8.176 34.3638 5.04C36.3798 1.904 39.7078 0.335999 44.3478 0.335999C48.9878 0.335999 52.2998 1.904 54.2838 5.04C56.2998 8.176 57.3078 12.512 57.3078 18.048C57.3078 23.616 56.2998 27.984 54.2838 31.152C52.2998 34.32 48.9878 35.904 44.3478 35.904C39.7078 35.904 36.3798 34.32 34.3638 31.152C32.3798 27.984 31.3878 23.616 31.3878 18.048ZM50.6838 18.048C50.6838 15.68 50.5238 13.696 50.2038 12.096C49.9158 10.464 49.3078 9.136 48.3798 8.112C47.4838 7.088 46.1398 6.576 44.3478 6.576C42.5558 6.576 41.1958 7.088 40.2678 8.112C39.3718 9.136 38.7638 10.464 38.4438 12.096C38.1558 13.696 38.0118 15.68 38.0118 18.048C38.0118 20.48 38.1558 22.528 38.4438 24.192C38.7318 25.824 39.3398 27.152 40.2678 28.176C41.1958 29.168 42.5558 29.664 44.3478 29.664C46.1398 29.664 47.4998 29.168 48.4278 28.176C49.3558 27.152 49.9638 25.824 50.2518 24.192C50.5398 22.528 50.6838 20.48 50.6838 18.048ZM62.419 18.048C62.419 12.512 63.411 8.176 65.395 5.04C67.411 1.904 70.739 0.335999 75.379 0.335999C80.019 0.335999 83.331 1.904 85.315 5.04C87.331 8.176 88.339 12.512 88.339 18.048C88.339 23.616 87.331 27.984 85.315 31.152C83.331 34.32 80.019 35.904 75.379 35.904C70.739 35.904 67.411 34.32 65.395 31.152C63.411 27.984 62.419 23.616 62.419 18.048ZM81.715 18.048C81.715 15.68 81.555 13.696 81.235 12.096C80.947 10.464 80.339 9.136 79.411 8.112C78.515 7.088 77.171 6.576 75.379 6.576C73.587 6.576 72.227 7.088 71.299 8.112C70.403 9.136 69.795 10.464 69.475 12.096C69.187 13.696 69.043 15.68 69.043 18.048C69.043 20.48 69.187 22.528 69.475 24.192C69.763 25.824 70.371 27.152 71.299 28.176C72.227 29.168 73.587 29.664 75.379 29.664C77.171 29.664 78.531 29.168 79.459 28.176C80.387 27.152 80.995 25.824 81.283 24.192C81.571 22.528 81.715 20.48 81.715 18.048Z" fill="#2A3246"/>
</svg>
